<?xml version="1.0" encoding="UTF-8"?>
<!--Generator: Apple Native CoreSVG 175-->
<!DOCTYPE svg
PUBLIC "-//W3C//DTD SVG 1.1//EN"
       "http://www.w3.org/Graphics/SVG/1.1/DTD/svg11.dtd">
<svg version="1.1" xmlns="http://www.w3.org/2000/svg" xmlns:xlink="http://www.w3.org/1999/xlink" width="3300" height="2200">
 <!--glyph: "", point size: 100.0, font version: "17.3d3e1", template writer version: "65.1"-->
 <g id="Notes">
  <rect height="2200" id="artboard" style="fill:white;opacity:1" width="3300" x="0" y="0"/>
  <line style="fill:none;stroke:black;opacity:1;stroke-width:0.5;" x1="263" x2="3036" y1="292" y2="292"/>
  <text style="stroke:none;fill:black;font-family:sans-serif;font-size:13;font-weight:bold;" transform="matrix(1 0 0 1 263 322)">Weight/Scale Variations</text>
  <text style="stroke:none;fill:black;font-family:sans-serif;font-size:13;text-anchor:middle;" transform="matrix(1 0 0 1 559.711 322)">Ultralight</text>
  <text style="stroke:none;fill:black;font-family:sans-serif;font-size:13;text-anchor:middle;" transform="matrix(1 0 0 1 856.422 322)">Thin</text>
  <text style="stroke:none;fill:black;font-family:sans-serif;font-size:13;text-anchor:middle;" transform="matrix(1 0 0 1 1153.13 322)">Light</text>
  <text style="stroke:none;fill:black;font-family:sans-serif;font-size:13;text-anchor:middle;" transform="matrix(1 0 0 1 1449.84 322)">Regular</text>
  <text style="stroke:none;fill:black;font-family:sans-serif;font-size:13;text-anchor:middle;" transform="matrix(1 0 0 1 1746.56 322)">Medium</text>
  <text style="stroke:none;fill:black;font-family:sans-serif;font-size:13;text-anchor:middle;" transform="matrix(1 0 0 1 2043.27 322)">Semibold</text>
  <text style="stroke:none;fill:black;font-family:sans-serif;font-size:13;text-anchor:middle;" transform="matrix(1 0 0 1 2339.98 322)">Bold</text>
  <text style="stroke:none;fill:black;font-family:sans-serif;font-size:13;text-anchor:middle;" transform="matrix(1 0 0 1 2636.69 322)">Heavy</text>
  <text style="stroke:none;fill:black;font-family:sans-serif;font-size:13;text-anchor:middle;" transform="matrix(1 0 0 1 2933.4 322)">Black</text>
  <line style="fill:none;stroke:black;opacity:1;stroke-width:0.5;" x1="263" x2="3036" y1="1903" y2="1903"/>
  <g transform="matrix(1 0 0 1 263 1933)">
   <path d="M9.24805 0.830078Q10.8691 0.830078 12.2949 0.214844Q13.7207-0.400391 14.8096-1.49414Q15.8984-2.58789 16.5186-4.01367Q17.1387-5.43945 17.1387-7.05078Q17.1387-8.66211 16.5186-10.0879Q15.8984-11.5137 14.8047-12.6074Q13.7109-13.7012 12.2852-14.3164Q10.8594-14.9316 9.23828-14.9316Q7.62695-14.9316 6.20117-14.3164Q4.77539-13.7012 3.69141-12.6074Q2.60742-11.5137 1.9873-10.0879Q1.36719-8.66211 1.36719-7.05078Q1.36719-5.43945 1.9873-4.01367Q2.60742-2.58789 3.69629-1.49414Q4.78516-0.400391 6.21094 0.214844Q7.63672 0.830078 9.24805 0.830078ZM9.24805-0.654297Q7.91992-0.654297 6.7627-1.14746Q5.60547-1.64062 4.73145-2.51953Q3.85742-3.39844 3.36426-4.56055Q2.87109-5.72266 2.87109-7.05078Q2.87109-8.37891 3.35938-9.54102Q3.84766-10.7031 4.72168-11.582Q5.5957-12.4609 6.75293-12.9541Q7.91016-13.4473 9.23828-13.4473Q10.5762-13.4473 11.7334-12.9541Q12.8906-12.4609 13.7695-11.582Q14.6484-10.7031 15.1465-9.54102Q15.6445-8.37891 15.6445-7.05078Q15.6445-5.72266 15.1514-4.56055Q14.6582-3.39844 13.7842-2.51953Q12.9102-1.64062 11.748-1.14746Q10.5859-0.654297 9.24805-0.654297ZM5.6543-7.05078Q5.6543-6.72852 5.85938-6.52832Q6.06445-6.32812 6.40625-6.32812L8.51562-6.32812L8.51562-4.20898Q8.51562-3.88672 8.71094-3.67676Q8.90625-3.4668 9.23828-3.4668Q9.56055-3.4668 9.77051-3.67676Q9.98047-3.88672 9.98047-4.20898L9.98047-6.32812L12.0898-6.32812Q12.4219-6.32812 12.627-6.52832Q12.832-6.72852 12.832-7.05078Q12.832-7.38281 12.627-7.58789Q12.4219-7.79297 12.0898-7.79297L9.98047-7.79297L9.98047-9.90234Q9.98047-10.2344 9.77051-10.4443Q9.56055-10.6543 9.23828-10.6543Q8.90625-10.6543 8.71094-10.4443Q8.51562-10.2344 8.51562-9.90234L8.51562-7.79297L6.40625-7.79297Q6.06445-7.79297 5.85938-7.58789Q5.6543-7.38281 5.6543-7.05078Z"/>
  </g>
  <g transform="matrix(1 0 0 1 281.867 1933)">
   <path d="M11.709 2.91016Q13.75 2.91016 15.5518 2.12891Q17.3535 1.34766 18.7305-0.0292969Q20.1074-1.40625 20.8887-3.20801Q21.6699-5.00977 21.6699-7.05078Q21.6699-9.0918 20.8887-10.8936Q20.1074-12.6953 18.7305-14.0723Q17.3535-15.4492 15.5469-16.2305Q13.7402-17.0117 11.6992-17.0117Q9.6582-17.0117 7.85645-16.2305Q6.05469-15.4492 4.68262-14.0723Q3.31055-12.6953 2.5293-10.8936Q1.74805-9.0918 1.74805-7.05078Q1.74805-5.00977 2.5293-3.20801Q3.31055-1.40625 4.6875-0.0292969Q6.06445 1.34766 7.86621 2.12891Q9.66797 2.91016 11.709 2.91016ZM11.709 1.25Q9.98047 1.25 8.47656 0.605469Q6.97266-0.0390625 5.83496-1.17676Q4.69727-2.31445 4.05762-3.81836Q3.41797-5.32227 3.41797-7.05078Q3.41797-8.7793 4.05762-10.2832Q4.69727-11.7871 5.83008-12.9297Q6.96289-14.0723 8.4668-14.7119Q9.9707-15.3516 11.6992-15.3516Q13.4277-15.3516 14.9316-14.7119Q16.4355-14.0723 17.5781-12.9297Q18.7207-11.7871 19.3652-10.2832Q20.0098-8.7793 20.0098-7.05078Q20.0098-5.32227 19.3701-3.81836Q18.7305-2.31445 17.5928-1.17676Q16.4551-0.0390625 14.9463 0.605469Q13.4375 1.25 11.709 1.25ZM7.17773-7.05078Q7.17773-6.69922 7.41211-6.47461Q7.64648-6.25 8.01758-6.25L10.8887-6.25L10.8887-3.36914Q10.8887-2.99805 11.1133-2.76855Q11.3379-2.53906 11.6895-2.53906Q12.0605-2.53906 12.29-2.76855Q12.5195-2.99805 12.5195-3.36914L12.5195-6.25L15.4004-6.25Q15.7715-6.25 16.001-6.47461Q16.2305-6.69922 16.2305-7.05078Q16.2305-7.42188 16.001-7.65137Q15.7715-7.88086 15.4004-7.88086L12.5195-7.88086L12.5195-10.752Q12.5195-11.1328 12.29-11.3623Q12.0605-11.5918 11.6895-11.5918Q11.3379-11.5918 11.1133-11.3574Q10.8887-11.123 10.8887-10.752L10.8887-7.88086L8.01758-7.88086Q7.63672-7.88086 7.40723-7.65137Q7.17773-7.42188 7.17773-7.05078Z"/>
  </g>
  <g transform="matrix(1 0 0 1 305.646 1933)">
   <path d="M14.9707 5.66406Q17.0605 5.66406 18.96 5.01465Q20.8594 4.36523 22.4512 3.19336Q24.043 2.02148 25.2197 0.429688Q26.3965-1.16211 27.0459-3.06641Q27.6953-4.9707 27.6953-7.05078Q27.6953-9.14062 27.0459-11.04Q26.3965-12.9395 25.2197-14.5312Q24.043-16.123 22.4512-17.2998Q20.8594-18.4766 18.9551-19.126Q17.0508-19.7754 14.9609-19.7754Q12.8711-19.7754 10.9717-19.126Q9.07227-18.4766 7.48535-17.2998Q5.89844-16.123 4.72168-14.5312Q3.54492-12.9395 2.90039-11.04Q2.25586-9.14062 2.25586-7.05078Q2.25586-4.9707 2.90527-3.06641Q3.55469-1.16211 4.72656 0.429688Q5.89844 2.02148 7.49023 3.19336Q9.08203 4.36523 10.9814 5.01465Q12.8809 5.66406 14.9707 5.66406ZM14.9707 3.84766Q13.1641 3.84766 11.5283 3.2959Q9.89258 2.74414 8.53516 1.74805Q7.17773 0.751953 6.17676-0.610352Q5.17578-1.97266 4.62891-3.6084Q4.08203-5.24414 4.08203-7.05078Q4.08203-8.86719 4.62891-10.5029Q5.17578-12.1387 6.17188-13.501Q7.16797-14.8633 8.52539-15.8594Q9.88281-16.8555 11.5186-17.4023Q13.1543-17.9492 14.9609-17.9492Q16.7773-17.9492 18.4131-17.4023Q20.0488-16.8555 21.4111-15.8594Q22.7734-14.8633 23.7695-13.501Q24.7656-12.1387 25.3174-10.5029Q25.8691-8.86719 25.8691-7.05078Q25.8789-5.24414 25.332-3.6084Q24.7852-1.97266 23.7842-0.610352Q22.7832 0.751953 21.4209 1.74805Q20.0586 2.74414 18.4229 3.2959Q16.7871 3.84766 14.9707 3.84766ZM9.19922-7.05078Q9.19922-6.66992 9.45801-6.4209Q9.7168-6.17188 10.1172-6.17188L14.0625-6.17188L14.0625-2.2168Q14.0625-1.81641 14.3115-1.55762Q14.5605-1.29883 14.9512-1.29883Q15.3516-1.29883 15.6104-1.55273Q15.8691-1.80664 15.8691-2.2168L15.8691-6.17188L19.8242-6.17188Q20.2246-6.17188 20.4785-6.4209Q20.7324-6.66992 20.7324-7.05078Q20.7324-7.46094 20.4785-7.71484Q20.2246-7.96875 19.8242-7.96875L15.8691-7.96875L15.8691-11.9141Q15.8691-12.3242 15.6104-12.583Q15.3516-12.8418 14.9512-12.8418Q14.5605-12.8418 14.3115-12.583Q14.0625-12.3242 14.0625-11.9141L14.0625-7.96875L10.1172-7.96875Q9.70703-7.96875 9.45312-7.71484Q9.19922-7.46094 9.19922-7.05078Z"/>
  </g>
  <text style="stroke:none;fill:black;font-family:sans-serif;font-size:13;font-weight:bold;" transform="matrix(1 0 0 1 263 1953)">Design Variations</text>
  <text style="stroke:none;fill:black;font-family:sans-serif;font-size:13;" transform="matrix(1 0 0 1 263 1971)">Symbols are supported in up to nine weights and three scales.</text>
  <text style="stroke:none;fill:black;font-family:sans-serif;font-size:13;" transform="matrix(1 0 0 1 263 1989)">For optimal layout with text and other symbols, vertically align</text>
  <text style="stroke:none;fill:black;font-family:sans-serif;font-size:13;" transform="matrix(1 0 0 1 263 2007)">symbols with the adjacent text.</text>
  <line style="fill:none;stroke:#00AEEF;stroke-width:0.5;opacity:1.0;" x1="776" x2="776" y1="1919" y2="1933"/>
  <g transform="matrix(1 0 0 1 776 1933)">
   <path d="M3.31055 0.15625Q3.70117 0.15625 3.91602-0.00976562Q4.13086-0.175781 4.26758-0.585938L5.52734-4.0332L11.2891-4.0332L12.5488-0.585938Q12.6855-0.175781 12.9004-0.00976562Q13.1152 0.15625 13.4961 0.15625Q13.8867 0.15625 14.1162-0.0585938Q14.3457-0.273438 14.3457-0.644531Q14.3457-0.869141 14.2383-1.17188L9.6582-13.3691Q9.48242-13.8184 9.17969-14.043Q8.87695-14.2676 8.4082-14.2676Q7.5-14.2676 7.17773-13.3789L2.59766-1.16211Q2.49023-0.859375 2.49023-0.634766Q2.49023-0.263672 2.70996-0.0537109Q2.92969 0.15625 3.31055 0.15625ZM6.00586-5.51758L8.37891-12.0898L8.42773-12.0898L10.8008-5.51758Z"/>
  </g>
  <line style="fill:none;stroke:#00AEEF;stroke-width:0.5;opacity:1.0;" x1="793.197" x2="793.197" y1="1919" y2="1933"/>
  <text style="stroke:none;fill:black;font-family:sans-serif;font-size:13;font-weight:bold;" transform="matrix(1 0 0 1 776 1953)">Margins</text>
  <text style="stroke:none;fill:black;font-family:sans-serif;font-size:13;" transform="matrix(1 0 0 1 776 1971)">Leading and trailing margins on the left and right side of each symbol</text>
  <text style="stroke:none;fill:black;font-family:sans-serif;font-size:13;" transform="matrix(1 0 0 1 776 1989)">can be adjusted by modifying the x-location of the margin guidelines.</text>
  <text style="stroke:none;fill:black;font-family:sans-serif;font-size:13;" transform="matrix(1 0 0 1 776 2007)">Modifications are automatically applied proportionally to all</text>
  <text style="stroke:none;fill:black;font-family:sans-serif;font-size:13;" transform="matrix(1 0 0 1 776 2025)">scales and weights.</text>
  <g transform="matrix(1 0 0 1 1289 1933)">
   <path d="M2.8418 1.86523L4.54102 3.57422Q5.18555 4.22852 5.90332 4.17969Q6.62109 4.13086 7.31445 3.35938L18.0078-8.42773L17.041-9.4043L6.42578 2.27539Q6.16211 2.57812 5.89355 2.61719Q5.625 2.65625 5.27344 2.30469L4.10156 1.14258Q3.75 0.791016 3.79395 0.522461Q3.83789 0.253906 4.14062-0.0195312L15.6152-10.8203L14.6387-11.7871L3.04688-0.898438Q2.30469-0.214844 2.25098 0.498047Q2.19727 1.21094 2.8418 1.86523ZM9.25781-16.3281Q8.94531-16.0254 8.90625-15.6348Q8.86719-15.2441 9.04297-14.9512Q9.21875-14.6777 9.55566-14.541Q9.89258-14.4043 10.3809-14.5215Q11.4746-14.7754 12.5977-14.7314Q13.7207-14.6875 14.7949-13.9844L14.209-12.5293Q13.9551-11.9043 14.0674-11.4404Q14.1797-10.9766 14.5801-10.5664L16.875-8.25195Q17.2363-7.88086 17.5781-7.82227Q17.9199-7.76367 18.3398-7.8418L19.4043-8.03711L20.0684-7.36328L20.0293-6.80664Q20-6.43555 20.1221-6.12305Q20.2441-5.81055 20.6055-5.44922L21.3672-4.70703Q21.7285-4.3457 22.1533-4.33105Q22.5781-4.31641 22.9297-4.66797L25.8398-7.58789Q26.1914-7.93945 26.1816-8.35449Q26.1719-8.76953 25.8105-9.13086L25.0391-9.89258Q24.6875-10.2539 24.3799-10.3857Q24.0723-10.5176 23.7109-10.4883L23.1348-10.4395L22.4902-11.0742L22.7344-12.1973Q22.832-12.6172 22.6953-12.9834Q22.5586-13.3496 22.1191-13.7891L19.9219-15.9766Q18.6719-17.2168 17.2607-17.8369Q15.8496-18.457 14.4189-18.4814Q12.9883-18.5059 11.665-17.959Q10.3418-17.4121 9.25781-16.3281ZM10.752-15.957Q11.6602-16.6211 12.7002-16.9043Q13.7402-17.1875 14.8047-17.085Q15.8691-16.9824 16.8701-16.5137Q17.8711-16.0449 18.7012-15.2051L21.1328-12.793Q21.3086-12.6172 21.3525-12.4512Q21.3965-12.2852 21.3379-12.0312L21.0156-10.5469L22.5195-9.0625L23.5059-9.12109Q23.6914-9.13086 23.7891-9.09668Q23.8867-9.0625 24.0332-8.91602L24.6094-8.33984L22.168-5.89844L21.5918-6.47461Q21.4453-6.62109 21.4062-6.71875Q21.3672-6.81641 21.377-7.01172L21.4453-7.98828L19.9512-9.47266L18.4277-9.21875Q18.1836-9.16992 18.042-9.2041Q17.9004-9.23828 17.7148-9.41406L15.7129-11.416Q15.5176-11.5918 15.4932-11.7529Q15.4688-11.9141 15.5859-12.1875L16.4648-14.2773Q15.293-15.3711 13.8281-15.791Q12.3633-16.2109 10.8398-15.7617Q10.7227-15.7324 10.6885-15.8057Q10.6543-15.8789 10.752-15.957Z"/>
  </g>
  <text style="stroke:none;fill:black;font-family:sans-serif;font-size:13;font-weight:bold;" transform="matrix(1 0 0 1 1289 1953)">Exporting</text>
  <text style="stroke:none;fill:black;font-family:sans-serif;font-size:13;" transform="matrix(1 0 0 1 1289 1971)">Symbols should be outlined when exporting to ensure the</text>
  <text style="stroke:none;fill:black;font-family:sans-serif;font-size:13;" transform="matrix(1 0 0 1 1289 1989)">design is preserved when submitting to Xcode.</text>
  <text id="template-version" style="stroke:none;fill:black;font-family:sans-serif;font-size:13;text-anchor:end;" transform="matrix(1 0 0 1 3036 1933)">Template v.2.0</text>
  <text style="stroke:none;fill:black;font-family:sans-serif;font-size:13;text-anchor:end;" transform="matrix(1 0 0 1 3036 1951)">Requires Xcode 12 or greater</text>
  <text id="descriptive-name" style="stroke:none;fill:black;font-family:sans-serif;font-size:13;text-anchor:end;" transform="matrix(1 0 0 1 3036 1969)">Generated from custom.pencil</text>
  <text style="stroke:none;fill:black;font-family:sans-serif;font-size:13;text-anchor:end;" transform="matrix(1 0 0 1 3036 1987)">Typeset at 100 points</text>
  <text style="stroke:none;fill:black;font-family:sans-serif;font-size:13;" transform="matrix(1 0 0 1 263 726)">Small</text>
  <text style="stroke:none;fill:black;font-family:sans-serif;font-size:13;" transform="matrix(1 0 0 1 263 1156)">Medium</text>
  <text style="stroke:none;fill:black;font-family:sans-serif;font-size:13;" transform="matrix(1 0 0 1 263 1586)">Large</text>
 </g>
 <g id="Guides">
  <g id="H-reference" style="fill:#27AAE1;stroke:none;" transform="matrix(1 0 0 1 339 696)">
   <path d="M0.993347 0L3.6377 0L29.3282-67.1326L30.0301-67.1326L30.0301-70.459L28.1227-70.459ZM11.6882-24.4797L46.9818-24.4797L46.2311-26.7288L12.4382-26.7288ZM55.1193 0L57.7637 0L30.6381-70.459L29.4327-70.459L29.4327-67.1326Z"/>
  </g>
  <line id="Baseline-S" style="fill:none;stroke:#27AAE1;opacity:1;stroke-width:0.5;" x1="263" x2="3036" y1="696" y2="696"/>
  <line id="Capline-S" style="fill:none;stroke:#27AAE1;opacity:1;stroke-width:0.5;" x1="263" x2="3036" y1="625.541" y2="625.541"/>
  <g id="H-reference" style="fill:#27AAE1;stroke:none;" transform="matrix(1 0 0 1 339 1126)">
   <path d="M0.993347 0L3.6377 0L29.3282-67.1326L30.0301-67.1326L30.0301-70.459L28.1227-70.459ZM11.6882-24.4797L46.9818-24.4797L46.2311-26.7288L12.4382-26.7288ZM55.1193 0L57.7637 0L30.6381-70.459L29.4327-70.459L29.4327-67.1326Z"/>
  </g>
  <line id="Baseline-M" style="fill:none;stroke:#27AAE1;opacity:1;stroke-width:0.5;" x1="263" x2="3036" y1="1126" y2="1126"/>
  <line id="Capline-M" style="fill:none;stroke:#27AAE1;opacity:1;stroke-width:0.5;" x1="263" x2="3036" y1="1055.54" y2="1055.54"/>
  <g id="H-reference" style="fill:#27AAE1;stroke:none;" transform="matrix(1 0 0 1 339 1556)">
   <path d="M0.993347 0L3.6377 0L29.3282-67.1326L30.0301-67.1326L30.0301-70.459L28.1227-70.459ZM11.6882-24.4797L46.9818-24.4797L46.2311-26.7288L12.4382-26.7288ZM55.1193 0L57.7637 0L30.6381-70.459L29.4327-70.459L29.4327-67.1326Z"/>
  </g>
  <line id="Baseline-L" style="fill:none;stroke:#27AAE1;opacity:1;stroke-width:0.5;" x1="263" x2="3036" y1="1556" y2="1556"/>
  <line id="Capline-L" style="fill:none;stroke:#27AAE1;opacity:1;stroke-width:0.5;" x1="263" x2="3036" y1="1485.54" y2="1485.54"/>
  <line id="left-margin" style="fill:none;stroke:#00AEEF;stroke-width:0.5;opacity:1.0;" x1="1399.89" x2="1399.89" y1="1030.78" y2="1150.12"/>
  <line id="right-margin" style="fill:none;stroke:#00AEEF;stroke-width:0.5;opacity:1.0;" x1="1499.8" x2="1499.8" y1="1030.78" y2="1150.12"/>
 </g>
 <g id="Symbols">
  <g id="Black-L" transform="matrix(1 0 0 1 2859.49 1556)">
   <path d="M36.5663 17.3294L114.195-60.394L98.3668-76.2244L20.7371 1.49897L14.1559 18.9286Q13.2682 21.2351 15.0827 22.9536Q16.8973 24.6722 18.9909 23.9221ZM121.965-68.0633L130.319-76.4157Q133.289-79.4236 133.409-82.7628Q133.528-86.1019 130.703-89.0062L127.135-92.6535Q124.232-95.5358 120.834-95.3353Q117.436-95.1348 114.468-92.2085L106.093-83.9146Z"/>
  </g>
  <g id="Heavy-L" transform="matrix(1 0 0 1 2565.01 1556)">
   <path d="M35.2413 15.5973L110.947-60.1617L96.3598-74.76L20.6487 0.999013L14.1976 17.5672Q13.4196 19.5765 15.0103 21.1081Q16.601 22.6397 18.4618 21.9811ZM118.161-67.2652L125.992-75.0902Q128.821-77.9344 128.936-81.0507Q129.051-84.1671 126.404-86.8894L123.226-90.1423Q120.509-92.8288 117.345-92.6305Q114.182-92.4322 111.363-89.6742L103.502-81.8937Z"/>
  </g>
  <g id="Bold-L" transform="matrix(1 0 0 1 2270.82 1556)">
   <path d="M33.5855 13.7038L107.453-60.1708L94.455-73.1955L20.5743 0.679281L14.2471 16.1795Q13.6 17.8349 14.9215 19.136Q16.243 20.437 17.8194 19.8862ZM113.983-66.5825L121.146-73.732Q123.792-76.3689 123.899-79.2012Q124.006-82.0334 121.582-84.5254L118.917-87.2567Q116.439-89.6975 113.571-89.503Q110.702-89.3086 108.083-86.7655L100.883-79.6452Z"/>
  </g>
  <g id="Semibold-L" transform="matrix(1 0 0 1 1975.84 1556)">
   <path d="M32.444 12.3985L105.045-60.177L93.1418-72.1169L20.523 0.45886L14.2813 15.2228Q13.7244 16.6342 14.8603 17.7764Q15.9962 18.9185 17.3765 18.4419ZM111.103-66.1118L117.805-72.7956Q120.324-75.2897 120.426-77.9261Q120.528-80.5625 118.257-82.8957L115.947-85.2675Q113.633-87.5388 110.968-87.347Q108.304-87.1552 105.822-84.7602L99.0766-78.095Z"/>
  </g>
  <g id="Medium-L" transform="matrix(1 0 0 1 1680.44 1556)">
   <path d="M31.5784 11.4087L103.218-60.1818L92.1461-71.2991L20.4841 0.291727L14.3072 14.4974Q13.8187 15.7238 14.8139 16.7455Q15.8091 17.7671 17.0407 17.3469ZM108.919-65.755L115.272-72.0856Q117.695-74.4714 117.793-76.9593Q117.891-79.4472 115.736-81.66L113.695-83.7591Q111.505-85.902 108.995-85.7122Q106.485-85.5224 104.108-83.2398L97.7072-76.9196Z"/>
  </g>
  <g id="Regular-L" transform="matrix(1 0 0 1 1385.45 1556)">
   <path d="M30.4495 10.1177L100.836-60.188L90.8473-70.2324L20.4333 0.0737281L14.341 13.5512Q13.9417 14.5363 14.7534 15.4008Q15.5651 16.2653 16.6027 15.9185ZM106.071-65.2895L111.969-71.1596Q114.265-73.404 114.358-75.6982Q114.451-77.9925 112.448-80.0482L110.757-81.7917Q108.729-83.767 106.421-83.5798Q104.113-83.3927 101.871-81.2566L95.921-75.3865Z"/>
  </g>
  <g id="Light-L" transform="matrix(1 0 0 1 1088.85 1556)">
   <path d="M29.211 10.4325L101.831-62.1059L93.2733-70.7574L20.6074 1.78171L14.3621 14.515Q14.0202 15.3475 14.6983 16.0593Q15.3765 16.7712 16.2423 16.4625ZM106.626-66.7877L111.933-72.047Q114.039-74.1199 114.113-76.1658Q114.187-78.2119 112.355-80.0768L111.217-81.2477Q109.4-83.0322 107.33-82.8546Q105.26-82.6771 103.248-80.7318L97.9081-75.4726Z"/>
  </g>
  <g id="Thin-L" transform="matrix(1 0 0 1 792.294 1556)">
   <path d="M27.5731 10.8488L103.146-64.6426L96.4819-71.4518L20.8376 4.04064L14.3901 15.7897Q14.124 16.4203 14.6256 16.9303Q15.1271 17.4403 15.7656 17.1821ZM107.361-68.7692L111.885-73.2206Q113.739-75.0666 113.787-76.7844Q113.836-78.5021 112.231-80.1147L111.826-80.5282Q110.286-82.0603 108.532-81.8955Q106.778-81.7307 105.068-80.0377L100.536-75.5864Z"/>
  </g>
  <g id="Ultralight-L" transform="matrix(1 0 0 1 495.661 1556)">
   <path d="M26.7342 11.062L103.82-65.9418L98.1253-71.8075L20.9555 5.19766L14.4044 16.4425Q14.1772 16.9698 14.5883 17.3763Q14.9993 17.783 15.5214 17.5506ZM107.738-69.7841L111.861-73.8218Q113.585-75.5515 113.621-77.1012Q113.657-78.6508 112.168-80.1342L112.138-80.1596Q110.74-81.5625 109.147-81.4042Q107.555-81.2459 106-79.6822L101.882-75.6447Z"/>
  </g>
  <g id="Black-M" transform="matrix(1 0 0 1 2874.23 1126)">
   <path d="M29.3003 7.02125L91.3977-55.1851L78.2624-68.3198L16.1654-6.11345L10.9343 8.02953Q10.1599 10.0512 11.74 11.5226Q13.3202 12.9941 15.1189 12.3394ZM97.8367-61.5562L104.678-68.3976Q107.074-70.8454 107.168-73.5904Q107.261-76.3352 104.943-78.7158L101.919-81.803Q99.538-84.1784 96.7363-84.0225Q93.9344-83.8665 91.5376-81.4807L84.691-74.6964Z"/>
  </g>
  <g id="Heavy-M" transform="matrix(1 0 0 1 2579.7 1126)">
   <path d="M28.1194 5.29896L88.1309-54.7811L76.0767-66.8398L16.063-6.75975L10.973 6.60978Q10.3007 8.35498 11.6743 9.65774Q13.0479 10.9605 14.6349 10.3918ZM94.0663-60.6378L100.451-67.02Q102.727-69.3236 102.818-71.8736Q102.91-74.4235 100.749-76.6438L98.0549-79.3982Q95.8369-81.5999 93.2423-81.4452Q90.6475-81.2906 88.3757-79.0516L81.9748-72.713Z"/>
  </g>
  <g id="Bold-M" transform="matrix(1 0 0 1 2285.42 1126)">
   <path d="M26.7983 3.37233L84.4764-54.3291L73.6316-65.1842L15.9484-7.48273L11.0164 5.02159Q10.4582 6.45752 11.6007 7.5716Q12.7433 8.68568 14.0936 8.21314ZM89.8487-59.6104L95.7224-65.479Q97.8647-67.6213 97.953-69.9531Q98.0414-72.285 96.0575-74.326L93.7325-76.7082Q91.6967-78.7154 89.3337-78.5622Q86.9707-78.409 84.8387-76.3342L78.9363-70.4942Z"/>
  </g>
  <g id="Semibold-M" transform="matrix(1 0 0 1 1990.38 1126)">
   <path d="M25.8875 2.04413L81.9571-54.0175L71.946-64.0429L15.8694-7.98115L11.0463 3.9267Q10.5667 5.14942 11.55 6.13343Q12.5333 7.11743 13.7204 6.71118ZM86.941-58.9022L92.4627-64.4167Q94.5126-66.4477 94.5989-68.6292Q94.6853-70.8107 92.823-72.7281L90.7526-74.8536Q88.8424-76.7269 86.6392-76.5746Q84.4359-76.4224 82.4003-74.4609L76.8417-68.9645Z"/>
  </g>
  <g id="Medium-M" transform="matrix(1 0 0 1 1694.94 1126)">
   <path d="M25.1969 1.03702L80.0468-53.7812L70.6679-63.1775L15.8095-8.35907L11.069 3.09651Q10.6491 4.15757 11.5116 5.04295Q12.3741 5.92832 13.4374 5.57233ZM84.7363-58.3651L89.9911-63.6112Q91.9708-65.5578 92.0556-67.6253Q92.1405-69.6929 90.3705-71.5165L88.4932-73.4475Q86.6783-75.2191 84.5961-75.0676Q82.5139-74.9162 80.5514-73.0405L75.2534-67.8047Z"/>
  </g>
  <g id="Regular-M" transform="matrix(1 0 0 1 1399.89 1126)">
   <path d="M24.2962-0.276588L77.5551-53.473L69.0008-62.0487L15.7314-8.85201L11.0985 2.01365Q10.7564 2.86385 11.4614 3.62058Q12.1664 4.3773 13.0683 4.08687ZM81.8606-57.6646L86.7672-62.5605Q88.6555-64.3971 88.7383-66.3159Q88.8213-68.2348 87.1716-69.9362L85.5461-71.6133Q83.8554-73.2524 81.9312-73.1019Q80.007-72.9514 78.1398-71.1878L73.1817-66.2919Z"/>
  </g>
  <g id="Light-M" transform="matrix(1 0 0 1 1103.28 1126)">
   <path d="M23.1859 0.00561694L78.4469-55.1926L71.1758-62.5194L15.8874-7.32072L11.1175 2.87772Q10.8268 3.59107 11.4121 4.21096Q11.9973 4.83085 12.7451 4.57463ZM82.3588-59.0078L86.7349-63.3561Q88.4522-65.0389 88.5179-66.7352Q88.5838-68.4316 87.0879-69.9619L85.9586-71.1256Q84.4562-72.5936 82.7459-72.4517Q81.0356-72.3099 79.3737-70.7173L74.9632-66.3691Z"/>
  </g>
  <g id="Thin-M" transform="matrix(1 0 0 1 806.706 1126)">
   <path d="M21.7174 0.378856L79.6263-57.4668L74.0525-63.1419L16.0938-5.29547L11.1425 4.02053Q10.9199 4.55289 11.3468 4.9918Q11.7737 5.43071 12.3177 5.21973ZM83.0177-60.7844L86.6923-64.4083Q88.1833-65.8877 88.2265-67.2897Q88.2697-68.6918 86.9772-69.9959L86.5042-70.4805Q85.2508-71.7222 83.8234-71.5918Q82.396-71.4614 81.0055-70.095L77.3194-66.4711Z"/>
  </g>
  <g id="Ultralight-M" transform="matrix(1 0 0 1 510.065 1126)">
   <path d="M20.9653 0.570028L80.2303-58.6317L75.5259-63.4608L16.1995-4.25814L11.1554 4.60587Q10.9676 5.04553 11.3134 5.39173Q11.6592 5.73795 12.0987 5.55014ZM83.3552-61.6943L86.6705-64.9473Q88.0456-66.3224 88.0772-67.5737Q88.1088-68.825 86.9204-70.0133L86.7836-70.1501Q85.6578-71.2759 84.3753-71.1513Q83.0928-71.0267 81.8413-69.7762L78.5262-66.5234Z"/>
  </g>
  <g id="Black-S" transform="matrix(1 0 0 1 2886.38 696)">
   <path d="M23.2557-1.57958L72.6698-51.0913L62.1229-61.6381L12.7089-12.1264L8.55852-0.847165Q7.92375 0.812991 9.21769 2.00928Q10.5116 3.20557 11.9764 2.66846ZM77.8456-56.2182L83.3143-61.687Q85.2186-63.6401 85.2919-65.8374Q85.3651-68.0346 83.5096-69.9389L81.0682-72.4292Q79.1639-74.3335 76.9179-74.2114Q74.6718-74.0893 72.7675-72.185L67.2987-66.7651Z"/>
  </g>
  <g id="Heavy-S" transform="matrix(1 0 0 1 2591.51 696)">
   <path d="M22.3876-3.08866L69.7619-50.526L59.9756-60.3122L12.6014-12.8749L8.58926-2.17185Q8.03517-0.73066 9.16776 0.338858Q10.3004 1.40838 11.6038 0.940413ZM74.5573-55.2611L79.7034-60.4072Q81.527-62.2566 81.6003-64.3156Q81.6735-66.3745 79.9332-68.1636L77.7108-70.4349Q75.9217-72.2124 73.8255-72.0903Q71.7293-71.9682 69.9056-70.1676L64.748-65.0589Z"/>
  </g>
  <g id="Bold-S" transform="matrix(1 0 0 1 2296.87 696)">
   <path d="M21.4166-4.7765L66.5094-49.8937L57.5738-58.8292L12.4811-13.712L8.62365-3.65346Q8.15978-2.45716 9.11192-1.52943Q10.0641-0.601701 11.1871-0.992326ZM70.8795-54.1906L75.6646-58.9757Q77.398-60.7091 77.4713-62.6134Q77.5445-64.5177 75.9332-66.1779L73.9556-68.2043Q72.2955-69.84 70.3668-69.7179Q68.4381-69.5958 66.7047-67.9113L61.8951-63.1505Z"/>
  </g>
  <g id="Semibold-S" transform="matrix(1 0 0 1 2001.58 696)">
   <path d="M20.7471-5.94018L64.267-49.4578L55.918-57.8068L12.3982-14.2892L8.64735-4.67495Q8.24569-3.6475 9.07342-2.81752Q9.90115-1.98755 10.8998-2.32485ZM68.3438-53.4525L72.8802-57.9888Q74.5513-59.6422 74.6246-61.4399Q74.6978-63.2376 73.1754-64.8088L71.3667-66.6664Q69.7954-68.2044 67.9822-68.0823Q66.169-67.9602 64.4978-66.3556L59.9282-61.8348Z"/>
  </g>
  <g id="Medium-S" transform="matrix(1 0 0 1 1705.95 696)">
   <path d="M20.2395-6.82253L62.5667-49.1272L54.6624-57.0315L12.3353-14.7268L8.66532-5.44948Q8.31083-4.55006 9.04423-3.7942Q9.77762-3.03835 10.6819-3.33523ZM66.4212-52.8929L70.7688-57.2405Q72.3929-58.8333 72.4661-60.55Q72.5394-62.2669 71.0843-63.7708L69.4036-65.5003Q67.8997-66.9642 66.1741-66.8421Q64.4485-66.72 62.8245-65.176L58.4368-60.8372Z"/>
  </g>
  <g id="Regular-S" transform="matrix(1 0 0 1 1410.64 696)">
   <path d="M19.5774-7.97342L60.3489-48.6961L53.0247-56.0203L12.2532-15.2976L8.68877-6.45975Q8.3958-5.72732 9.00615-5.06814Q9.6165-4.40897 10.3977-4.65311ZM63.9133-52.1629L68.0149-56.2644Q69.5774-57.7781 69.6506-59.3894Q69.7239-61.0008 68.3567-62.4168L66.843-63.9793Q65.427-65.3465 63.8157-65.2244Q62.2043-65.1023 60.6418-63.6375L56.4915-59.5359Z"/>
  </g>
  <g id="Light-S" transform="matrix(1 0 0 1 1114.02 696)">
   <path d="M18.5953-7.72378L61.1378-50.2172L54.9488-56.4367L12.3913-13.943L8.70552-5.69538Q8.45807-5.084 8.9625-4.54588Q9.46693-4.00775 10.1119-4.22163ZM64.3541-53.3511L67.9864-56.9682Q69.3976-58.3458 69.4557-59.7603Q69.5139-61.1748 68.2827-62.4395L67.208-63.5478Q65.9585-64.7637 64.5364-64.6492Q63.1143-64.5348 61.7333-63.2213L58.0675-59.6042Z"/>
  </g>
  <g id="Thin-S" transform="matrix(1 0 0 1 817.434 696)">
   <path d="M17.2962-7.3936L62.1811-52.229L57.4936-56.9874L12.5739-12.1514L8.72767-4.68443Q8.54043-4.23316 8.90478-3.85514Q9.26911-3.47711 9.73377-3.65097ZM64.9369-54.9226L67.9487-57.899Q69.1598-59.0967 69.1978-60.2508Q69.236-61.405 68.1847-62.4696L67.6906-62.9772Q66.6614-63.9929 65.4896-63.8885Q64.3177-63.7841 63.1769-62.6707L60.1518-59.6944Z"/>
  </g>
  <g id="Ultralight-S" transform="matrix(1 0 0 1 520.785 696)">
   <path d="M16.6309-7.22449L62.7155-53.2595L58.797-57.2695L12.6674-11.2338L8.73902-4.16663Q8.58262-3.79737 8.87521-3.50135Q9.16779-3.20532 9.54011-3.35868ZM65.2355-55.7276L67.9294-58.3758Q69.038-59.4813 69.0658-60.5021Q69.0937-61.5229 68.1346-62.485L67.9378-62.6849Q67.0215-63.5981 65.9778-63.4989Q64.9341-63.3997 63.9163-62.3888L61.2194-59.7407Z"/>
  </g>
 </g>
</svg>
